<svg xmlns="http://www.w3.org/2000/svg" fill="none" viewBox="0 0 32 32"><path fill="#43464A" fill-rule="evenodd" d="M12.61 9.512c1.497 0 2.71-1.181 2.71-2.638s-1.213-2.638-2.71-2.638S9.9 5.417 9.9 6.874s1.213 2.638 2.71 2.638M6.634 15.4c.785-2.485 3.164-4.293 5.975-4.293 2.813 0 5.19 1.808 5.975 4.294.22.696.33 1.045.058 1.416s-.714.371-1.599.371H8.175c-.885 0-1.327 0-1.599-.371s-.162-.72.058-1.417" clip-rule="evenodd"/><path fill="#43464A" d="M32 16c0 8.837-7.163 16-16 16S0 24.837 0 16 7.163 0 16 0s16 7.163 16 16"/><path fill="#fff" fill-rule="evenodd" d="M16.36 14.218c2.049 0 3.709-1.616 3.709-3.61C20.069 8.617 18.409 7 16.36 7c-2.048 0-3.709 1.616-3.709 3.609s1.661 3.61 3.709 3.61m-8.176 8.058c1.073-3.4 4.328-5.874 8.175-5.874 3.849 0 7.102 2.473 8.176 5.874.3.954.451 1.43.08 1.938-.373.508-.978.508-2.188.508H10.292c-1.21 0-1.816 0-2.188-.508s-.222-.984.08-1.938" clip-rule="evenodd"/></svg>